<?xml version='1.0' encoding='utf-8'?>
<svg xmlns:xlink="http://www.w3.org/1999/xlink" xmlns="http://www.w3.org/2000/svg" viewBox="0,0,1400,700" style="enable-background:new 0 0 1400 700;" version="1.1">
<defs/>
<g id="layer0">
<path d="M0,0L1400,0L1400,100L0,100L0,0Z"             fill="color(display-p3 1 0 0)"/>
<path d="M0,100L1400,100L1400,200L0,200L0,100L0,100Z" fill="color(rec2020 1 0.5 0)"/>
<path d="M0,200L1400,200L1400,300L0,300L0,200L0,200Z" fill="color(rec2020 1 1 0)"/>
<path d="M0,300L1400,300L1400,400L0,400L0,300L0,300Z" fill="color(rec2020 0 0.5 0)"/>
<path d="M0,400L1400,400L1400,500L0,500L0,400L0,400Z" fill="color(rec2020 0 1 1)"/>
<path d="M0,500L1400,500L1400,600L0,600L0,500L0,500Z" fill="color(rec2020 0 0 1)"/>
<path d="M0,600L1400,600L1400,700L0,700L0,600L0,600Z" fill="color(rec2020 0.5 0 1)"/>
<path d="M342.566,644.814C342.806,645.054 349.803,644.983 357.793,644.533C416.826,641.212 475.772,614.683 541.12,562C557.735,548.607 593.917,515.443 604.242,504.147C606.329,501.864 611.695,496.163 616.172,491.473C620.649,486.783 626.572,480.402 629.325,477.305C632.078,474.208 634.688,471.297 635.136,470.827C636.456,469.439 649.265,454.843 652.317,451.25C653.861,449.43 655.942,447.009 656.943,445.864C657.946,444.718 661.726,440.223 665.336,435.882C668.947,431.541 671.959,428.114 672.355,428.114C673.038,428.114 676.823,431.993 679.857,435.668C681.365,437.493 693.729,451.239 701.704,459.956C811.183,579.622 897.414,633.61 995.155,643.741C1005.84,644.848 1039.37,644.854 1051.05,643.75C1149.5,634.443 1237.83,583.638 1288.33,507.275C1291.56,502.401 1294.34,498.311 1294.58,498.1C1294.83,497.888 1295.58,496.456 1296.13,495.079C1296.7,493.703 1297.1,492.793 1297.44,492.793C1297.78,492.793 1298.78,491.365 1299.26,489.91C1299.75,488.455 1300.2,487.365 1300.5,487.232C1301.32,486.876 1312.48,463.769 1313.54,460.206C1313.86,459.148 1314.54,457.696 1315.12,456.861C1315.7,456.025 1316.24,454.618 1316.25,453.971C1316.25,453.323 1317.07,451.213 1318.11,449.095C1319.15,446.978 1320.05,444.481 1320.07,443.726C1320.07,442.972 1320.6,441.195 1321.28,439.622C1322.74,436.17 1325.1,427.875 1326.69,420.527C1327.33,417.562 1328.16,414.516 1328.55,413.669C1329.29,412.07 1332.45,392.313 1334.1,378.916C1336.12,362.548 1335.03,310.522 1332.42,298.338C1332.01,296.432 1331.15,291.428 1330.5,287.193C1329.16,278.46 1326.73,266.127 1326.02,264.4C1325.76,263.765 1325.19,261.404 1324.74,259.074C1323.78,254.217 1320.9,244.639 1317.56,235.157C1316.28,231.558 1314.76,227.227 1314.17,225.533C1313.57,223.839 1312.57,221.378 1311.96,220.108C1311.36,218.837 1309.79,215.271 1308.48,212.164C1307.16,209.057 1305.24,204.906 1304.2,202.974C1303.18,201.042 1302.38,199.156 1302.38,198.584C1302.38,198.011 1301.73,197.196 1301.36,197.196C1301,197.196 1300.43,195.86 1299.7,193.955C1298.98,192.049 1297.76,190.266 1297.4,190.266C1297.04,190.266 1296.84,189.735 1296.57,188.783C1296.28,187.829 1295.23,185.749 1294.29,184.267C1285.77,170.931 1277.82,159.503 1274.52,155.824C1273.86,155.087 1272.81,153.749 1272.15,152.811C1268.4,147.45 1250.91,129.368 1243.04,122.705C1240.7,120.736 1238.25,118.615 1237.55,117.98C1236.86,117.344 1235.17,115.941 1233.82,114.882C1232.46,113.823 1230.95,112.61 1230.43,112.176C1208.36,93.632 1165.22,73.0381 1130.36,64.4103C1060.55,47.1343 1000.91,53.6052 938.446,85.2307C923.755,92.6665 915.632,97.4873 898.099,109.17C886.349,116.999 886.018,117.227 883.631,119.088C882.522,119.951 880.867,121.162 879.92,121.797C874.322,125.549 851.03,144.18 843.661,150.804C842.175,152.136 838.71,155.228 835.961,157.675C811.738,179.214 782.309,209.06 760.087,234.629C757.546,237.553 754.787,240.646 753.94,241.52C753.093,242.394 748.908,247.288 744.661,252.371C736.707,261.893 734.928,264.011 732.479,266.874C731.694,267.791 730.268,269.495 729.204,270.751L727.445,273.333L725.856,271.05C723.026,267.711 714.708,258.186 712.477,255.811C711.418,254.684 708.307,251.225 705.554,248.116C679.253,218.406 634.867,174.372 610.949,154.26C609.12,152.722 607.044,150.95 606.327,150.315C605.609,149.68 603.283,147.763 601.17,146.069C599.058,144.375 596.952,142.654 596.474,142.23C592.899,139.065 573.147,124.21 567.258,120.257C566.312,119.622 563.329,117.63 560.631,115.831C557.933,114.032 555.206,112.211 554.571,111.783C553.936,111.355 551.501,109.804 549.172,108.343C546.843,106.883 544.628,105.427 544.205,105.074C542.177,103.387 518.249,90.4504 508.329,85.6812C429.113,47.603 340.879,45.086 255.498,78.4738C239.966,84.547 207.936,100.663 202.659,105.054C202.235,105.406 198.978,107.554 195.379,109.858C191.779,112.162 188.308,114.497 187.713,115.011C187.119,115.524 184.898,117.13 182.739,118.607C168.61,128.28 144.486,150.744 131.449,166.368C128.87,169.46 126.411,172.405 125.986,172.913C124.854,174.265 121.216,179.053 119.441,181.529C118.594,182.709 117.198,184.572 116.328,185.684C115.459,186.795 113.618,189.464 112.261,191.582C110.904,193.699 109.444,195.941 109.006,196.576C107.276,199.09 104.414,204.081 103.25,206.611C102.576,208.078 101.863,209.319 101.515,209.545C101.166,209.772 99.4202,212.869 97.7855,216.257C96.1516,219.645 94.7202,222.365 94.3907,222.506C94.0611,222.647 93.5814,223.458 93.5814,223.919C93.5814,224.686 90.2805,232.038 87.8874,236.653C87.3384,237.711 86.4229,240.017 85.8808,241.711C85.338,243.405 84.5018,245.408 83.9782,246.255C83.4546,247.102 82.5637,249.718 82.0502,251.941C81.7935,253.053 81.5089,254.021 81.2363,254.753C80.9636,255.486 81.0407,255.715 80.8838,255.715C80.7269,255.715 80.1471,256.446 79.8663,257.248C79.5856,258.05 79.2656,259.197 78.9966,260.414C78.4585,262.85 77.7684,265.094 77.3791,265.576C76.9897,266.059 76.085,269.153 75.4542,272.27C74.8233,275.387 74.0082,278.553 73.6113,279.4C72.1148,282.593 67.1169,310.187 65.7829,322.656C64.3979,335.602 64.6006,374.826 66.1338,390.457C67.3437,402.793 70.0803,421.862 70.9464,424.042C71.1999,424.679 72.0459,428.263 72.8475,432.074C74.9096,441.881 76.6312,448.637 77.8593,451.764C78.4415,453.246 79.2834,455.974 79.7477,457.879C80.2119,459.785 81.0865,462.445 81.6653,463.716C82.244,464.986 83.1104,467.613 83.6155,469.624C84.1214,471.636 85.1439,473.543 85.4781,473.543C85.8123,473.543 86.1942,475.015 86.737,477.133C87.2791,479.25 88.3024,481.243 88.5996,481.243C88.8976,481.243 89.0439,481.934 89.3357,483.099C89.6276,484.263 90.9026,487.358 92.1385,489.892C93.3751,492.427 94.3514,494.787 94.3514,495.323C94.3514,495.858 95.0205,496.643 95.4155,496.643C95.8105,496.643 96.0469,497.179 96.3449,498.133C96.6421,499.085 99.354,504.262 102.335,509.556C134.087,565.94 184.593,607.703 246.567,628.819C273.854,638.116 309.465,644.477 334.227,644.479C338.709,644.479 342.327,644.574 342.566,644.814L342.566,644.814ZM341.323,594.767C270.494,594.164 203.133,560.34 162.664,505.05C158.902,499.911 155.46,495.271 155.031,494.759C154.603,494.247 154.333,493.913 154.333,493.745C154.333,493.576 152.547,490.242 150.421,486.547C148.295,482.852 146.097,478.725 145.514,477.329C144.931,475.933 143.934,474.394 143.467,474.106C143,473.817 142.783,473.228 142.783,472.437C142.783,471.645 142.239,470.298 141.695,469.738C140.754,468.772 138.685,463.788 136.007,456.143C135.339,454.237 134.408,452.332 134.098,452.12C133.788,451.907 133.091,449.681 132.379,446.929C131.667,444.178 130.732,441.446 130.384,441.023C130.035,440.6 129.416,438.159 128.918,435.406C128.42,432.653 127.642,429.883 127.279,429.444C126.916,429.005 126.12,425.204 125.419,420.794C124.717,416.384 123.814,411.888 123.434,410.887C122.372,408.095 120.454,380.955 120.454,368.826C120.454,347.934 122.655,329.09 127.398,309.405C128.655,304.185 129.694,299.146 129.694,298.307C129.694,297.887 129.718,297.736 129.842,297.536C129.967,297.336 129.662,297.382 129.851,297.499C130.039,297.615 130.763,297.256 130.985,296.811C131.207,296.366 131.45,295.602 131.598,294.811C131.894,293.226 132.731,290.621 133.486,288.927C134.241,287.233 135.117,284.468 135.401,282.88C135.685,281.292 135.853,280.277 136.19,280.277C136.527,280.277 137.764,277.953 138.533,275.412C139.303,272.871 139.847,271.038 140.148,271.038C140.45,271.038 141.467,269.226 142,267.32C142.534,265.414 142.91,264.108 143.245,264.108C143.58,264.108 144.757,262.138 145.461,260.021C146.164,257.903 146.729,256.408 147.118,256.408C147.508,256.408 148.173,255.689 148.173,255.233C148.173,254.776 150.218,250.876 152.773,246.356C168.704,218.168 194.508,190.149 220.397,172.928C223.997,170.533 227.311,168.285 227.734,167.951C230.541,165.738 248.015,156.674 251.881,155.424C253.363,154.945 255.068,154.193 255.537,153.822C257.759,152.069 272.936,147.415 285.729,144.542C313.868,138.222 359.275,143.914 389.289,157.517C391.524,158.531 393.654,159.39 393.846,159.39C395.472,159.39 426.26,175.661 429.033,177.981C429.457,178.336 431.748,179.837 434.077,181.283C436.406,182.729 438.635,184.166 439.065,184.502C439.496,184.837 441.933,186.512 444.456,188.206C446.979,189.9 449.538,191.716 450.184,192.273C450.83,192.83 454.67,195.756 458.693,198.756C465.601,203.909 481.033,216.52 485.072,220.313C486.09,221.268 490.011,224.822 493.78,228.203C506.033,239.194 538.225,271.805 551.965,287.143C552.938,288.231 556.546,292.217 559.981,296C563.416,299.783 569.077,306.164 572.567,310.187C576.057,314.211 581.926,320.968 585.607,325.203C589.288,329.438 597.124,338.616 603.024,345.604C608.923,352.591 619.217,364.683 625.897,372.472C632.577,380.261 637.96,386.622 637.96,386.883C637.96,387.431 622.562,406.267 618.415,410.827C617.568,411.757 615.157,414.612 613.071,417.153C610.986,419.694 607.877,423.35 606.151,425.29C604.425,427.23 601.278,430.805 599.161,433.231C524.453,518.815 451.979,572.829 389.512,589.437C372.522,593.954 363.457,594.956 341.323,594.767L341.323,594.767ZM1089.12,558.151C1049.72,559.774 1001.73,543.628 959.582,514.593C946.562,505.621 923.97,488.118 918.334,482.63C917.433,481.752 915.886,480.362 914.915,479.565C904.436,470.938 872.505,439.552 856.489,422.129C851.631,416.843 847.296,412.136 846.857,411.67C844.347,408.977 834.629,398.053 826.714,389.022C818.29,379.409 811.407,371.372 775.004,328.606C767.451,319.734 762.153,313.23 762.448,312.715C763.081,311.607 788.577,280.671 791.549,277.399C792.742,276.09 795.799,272.629 798.34,269.716C802.921,264.456 805.385,261.712 817.967,247.854C832.142,232.241 865.652,199.489 880.282,186.951C883.446,184.24 886.634,181.499 887.358,180.864C888.082,180.229 889.76,178.855 891.115,177.797C892.463,176.738 893.98,175.507 894.457,175.078C896.967,172.827 914.638,159.292 918.034,157.022C918.981,156.386 920.683,155.14 921.791,154.27C922.893,153.4 925.503,151.599 927.62,150.242C929.738,148.885 931.994,147.432 932.633,147.014C943.12,140.116 958.05,131.396 960.837,130.543C961.792,130.251 962.816,129.358 962.816,128.963C962.816,128.568 962.824,128.591 963.255,128.591C963.686,128.591 967.783,126.824 972.171,124.707C976.56,122.59 980.264,120.891 980.58,120.891C980.903,120.891 982.736,120.204 984.476,119.404C1004.54,110.17 1033.82,104.322 1056.87,104.942C1097.7,106.039 1136.19,116.243 1168.77,134.611C1170.74,135.722 1173.51,137.283 1174.93,138.08C1177.36,139.446 1187.34,145.918 1189.01,147.209C1189.44,147.536 1191.52,149.099 1193.64,150.677C1195.76,152.255 1197.85,153.875 1198.33,154.298C1198.81,154.722 1200.9,156.448 1202.97,158.123C1211.9,165.364 1231.63,186.336 1237.07,194.35C1248.86,211.758 1258.57,228.701 1258.57,231.989C1258.57,232.524 1259.21,233.308 1259.58,233.308C1259.94,233.308 1260.53,235.058 1261.29,237.493C1262.05,239.928 1263.03,242.271 1263.33,242.483C1264.09,243.03 1268.58,256.407 1268.58,258.111C1268.58,258.89 1269.13,260.655 1269.75,261.839C1270.36,263.023 1271.21,266.04 1271.66,268.668C1272.11,271.296 1272.86,274.233 1273.27,275.08C1273.69,275.927 1274.71,281.024 1275.56,286.53C1276.41,292.035 1277.45,298.283 1277.84,300.4C1279.13,307.25 1279.65,340.974 1278.66,353.229C1276.99,373.803 1270.65,403.369 1265.4,414.971C1264.63,416.693 1263.96,418.613 1263.96,419.063C1263.96,419.789 1262.18,424.074 1259.01,431.091C1255.15,439.672 1248.16,453.094 1245.22,457.608C1230.75,479.757 1223.66,488.639 1209,503.004C1179.52,531.908 1142.61,551.426 1107.41,556.72C1101.61,557.591 1100.39,557.687 1089.12,558.151L1089.12,558.151Z" fill="#010101"/>
</g>
</svg>
