<?xml version='1.0' encoding='utf-8'?>
<!-- Generator: imaengine 6.0   -->
<svg xmlns:xlink="http://www.w3.org/1999/xlink" xmlns="http://www.w3.org/2000/svg" viewBox="0,0,100,100" style="enable-background:new 0 0 100 100;" version="1.1">
<defs/>
<g id="layer0">
<path d="M48.937,51.8504L71.981,11.7156L68.385,12.7395L65.067,13.912L62.022,15.2118L59.236,16.6113L56.703,18.0912L54.41,19.6304L52.349,21.2114L50.503,22.8194L48.867,24.4384L47.425,26.0564L45.077,29.2424L43.37,32.3024L42.208,35.1824L41.506,37.8424L41.186,40.2574L41.172,42.4164L41.583,45.1684L42.352,47.3574L43.671,49.4854L45.437,51.0824L47.599,51.9114L48.937,51.8504L48.937,51.8504ZM51.07,51.8454L27.836,11.8211L26.923,15.4471L26.281,18.9064L25.881,22.1944L25.701,25.3064L25.717,28.2414L25.902,30.9944L26.241,33.5724L26.712,35.9724L27.295,38.2004L27.976,40.2574L29.561,43.8834L31.358,46.8934L33.271,49.3394L35.225,51.2754L37.154,52.7614L39.017,53.8534L41.607,54.8714L43.888,55.3014L46.389,55.2224L48.655,54.4914L50.454,53.0354L51.07,51.8454L51.07,51.8454ZM52.132,49.9954L5.854,50.1064L8.53702,52.7084L11.212,54.9954L13.86,56.9834L16.466,58.6964L19.014,60.1514L21.494,61.3654L23.893,62.3614L26.207,63.1544L28.427,63.7634L30.55,64.2014L34.482,64.6424L37.987,64.5914L41.064,64.1574L43.717,63.4344L45.97,62.5054L47.846,61.4364L50.022,59.7034L51.534,57.9444L52.717,55.7384L53.217,53.4104L52.855,51.1224L52.132,49.9954L52.132,49.9954ZM51.061,48.1514L28.019,88.2844L31.614,87.2604L34.93,86.0874L37.977,84.7904L40.764,83.3884L43.296,81.9104L45.588,80.3694L47.651,78.7884L49.494,77.1824L51.133,75.5634L52.575,73.9454L54.92,70.7594L56.63,67.6974L57.792,64.8194L58.493,62.1574L58.814,59.7424L58.828,57.5834L58.414,54.8314L57.647,52.6424L56.328,50.5174L54.563,48.9194L52.4,48.0884L51.061,48.1514L51.061,48.1514ZM48.928,48.1564L72.164,88.1784L73.076,84.5524L73.719,81.0934L74.116,77.8064L74.296,74.6934L74.283,71.7604L74.095,69.0054L73.756,66.4274L73.288,64.0274L72.704,61.8014L72.023,59.7424L70.438,56.1184L68.642,53.1064L66.729,50.6604L64.775,48.7244L62.843,47.2384L60.98,46.1464L58.391,45.1284L56.112,44.6984L53.61,44.7774L51.344,45.5084L49.544,46.9674L48.928,48.1564L48.928,48.1564ZM47.866,50.0064L94.146,49.8954L91.461,47.2914L88.787,45.0064L86.137,43.0164L83.533,41.3034L80.985,39.8514L78.506,38.6344L76.106,37.6404L73.792,36.8454L71.57,36.2394L69.449,35.7984L65.517,35.3594L62.011,35.4104L58.936,35.8424L56.282,36.5654L54.03,37.4964L52.153,38.5634L49.975,40.2964L48.465,42.0574L47.283,44.2614L46.78,46.5894L47.144,48.8774L47.866,50.0064L47.866,50.0064Z" stroke="#000000" stroke-width="1" stroke-linecap="round" fill="color(rec2020 1 0.5 0)" stroke-linejoin="miter" style="mix-blend-mode: source-over; paint-order: stroke fill markers"/>
</g>
</svg>
