<?xml version='1.0' encoding='utf-8'?>
<!-- Generator: imaengine 6.0   -->
<svg xmlns:xlink="http://www.w3.org/1999/xlink" xmlns="http://www.w3.org/2000/svg" viewBox="0,0,600,600" style="enable-background:new 0 0 600 600;" version="1.1">
<defs/>
<g id="layer0">
<path d="M300.281,299.933L176.287,424.72C143.192,391.835 124.515,347.149 124.367,300.493L300.281,299.933L300.281,299.933Z" fill="color(rec2020 0 1 1)"/>
<path d="M300.281,299.933L425.068,423.928C392.182,457.022 347.496,475.698 300.841,475.847L300.281,299.933L300.281,299.933Z" fill="color(rec2020 0.5 0 1)"/>
<path d="M300.281,299.933L300.841,475.847C254.186,475.995 209.383,457.604 176.287,424.72L300.281,299.933L300.281,299.933Z" fill="color(rec2020 0 0 1)"/>
<path d="M300.281,299.933L476.194,299.373C476.343,346.028 457.952,390.832 425.068,423.928L300.281,299.933L300.281,299.933Z" fill="color(rec2020 1 0 1)"/>
<path d="M300.281,299.933L175.495,175.94C208.38,142.844 253.065,124.168 299.72,124.019L300.281,299.933L300.281,299.933Z" fill="color(rec2020 1 1 0)"/>
<path d="M300.281,299.933L299.72,124.019C346.376,123.87 391.18,142.262 424.275,175.147L300.281,299.933L300.281,299.933Z" fill="color(rec2020 1 0.5 0)"/>
<path d="M300.041,300.459L424.036,175.673C457.13,208.558 475.807,253.243 475.955,299.898L300.041,300.459L300.041,300.459Z" fill="color(display-p3 1 0 0)"/>
<path d="M300.281,299.857L124.367,300.417C124.218,253.762 142.609,208.959 175.495,175.863L300.281,299.857L300.281,299.857Z" fill="color(rec2020 0 0.5 0)"/>
<path d="M299.432,122.001C397.739,121.688 477.686,201.127 477.999,299.432C478.312,397.739 398.873,477.686 300.566,477.999C202.261,478.312 122.314,398.873 122.001,300.566C121.688,202.261 201.127,122.314 299.432,122.001L299.432,122.001L299.432,122.001ZM299.444,125.561C203.105,125.868 125.254,204.216 125.561,300.555C125.868,396.895 204.216,474.746 300.555,474.439C396.895,474.132 474.746,395.784 474.439,299.444C474.132,203.105 395.784,125.254 299.444,125.561L299.444,125.561L299.444,125.561Z" fill="#000000"/>
<path d="M299,123.5L301,123.5L301,476.5L299,476.5L299,123.5L299,123.5Z" fill="#000000"/>
<path d="M175,176.205L176.168,175L425,423.795L423.832,425L175,176.205L175,176.205Z" fill="#000000"/>
<path d="M476.499,299L476.5,300.714L123.501,301L123.5,299.286L476.499,299L476.499,299Z" fill="#000000"/>
<path d="M423.8,175L425,176.174L176.2,425L175,423.826L423.8,175L423.8,175Z" fill="#000000"/>
</g>
</svg>
