<?xml version='1.0' encoding='utf-8'?>
<!-- Generator: imaengine 6.0   -->
<svg xmlns:xlink="http://www.w3.org/1999/xlink" xmlns="http://www.w3.org/2000/svg" viewBox="0,0,100,100" style="enable-background:new 0 0 100 100;" version="1.1">
<defs/>
<g id="layer0">
<path d="M70.2243,38.3029C86.1223,38.2039 94.0753,42.0909 94.0813,49.9639C94.0873,57.8379 86.1413,61.7389 70.2433,61.6649C78.2783,75.3839 78.8873,84.2149 72.0703,88.1579C65.2543,92.1009 57.9033,87.1689 50.0193,73.3629C42.1563,87.1809 34.8133,92.1249 27.9903,88.1929C21.1673,84.2609 21.7633,75.4289 29.7773,61.6969C13.8778,61.7959 5.92501,57.9089 5.91871,50.0339C5.91241,42.1609 13.8591,38.2609 29.7583,38.3349C21.7223,24.6159 21.1133,15.7849 27.9293,11.8422C34.7463,7.89948 42.0973,12.8312 49.9823,26.6369C57.8443,12.8187 65.1873,7.87528 72.0093,11.8071C78.8323,15.739 78.2373,24.5709 70.2243,38.3029L70.2243,38.3029L70.2243,38.3029Z" stroke="#000000" stroke-width="1" stroke-linecap="round" fill="#008800" stroke-linejoin="round"/>
</g>
</svg>
