<?xml version='1.0' encoding='utf-8'?>
<!-- Generator: imaengine 6.0   -->
<svg xmlns:xlink="http://www.w3.org/1999/xlink" xmlns="http://www.w3.org/2000/svg" viewBox="0,0,600,600" style="enable-background:new 0 0 600 600;" version="1.1">
<defs/>
<g id="layer0">
<path d="M300.281,299.933L176.287,424.72C143.192,391.835 124.515,347.149 124.367,300.493L300.281,299.933Z" fill="#00FFFF"/>
<path d="M530.603,306.196C505.34,314.289 492.694,312.237 492.664,300.04C492.635,287.842 505.272,285.73 530.573,293.702C522.48,268.437 524.532,255.791 536.729,255.761C548.927,255.732 551.039,268.369 543.067,293.672C568.331,285.579 580.978,287.631 581.008,299.828C581.037,312.026 568.4,314.138 543.097,306.166C551.19,331.429 549.138,344.075 536.94,344.104C524.743,344.134 522.631,331.497 530.603,306.196L530.603,306.196Z" stroke="#000000" stroke-width="1" stroke-linecap="round" fill="#FF0000" stroke-linejoin="round"/>
<path d="M107.483,299.819L76.8191,313.247L63.4418,343.933L50.0136,313.269L19.328,299.889L49.9923,286.463L63.3716,255.777L76.7977,286.442L107.483,299.819Z" stroke="#000000" stroke-width="1" stroke-linecap="round" fill="#00FFFF" stroke-linejoin="round"/>
<path d="M152.376,120.188C168.274,120.089 176.227,123.976 176.233,131.849C176.239,139.723 168.293,143.624 152.395,143.55C160.43,157.269 161.039,166.1 154.222,170.043C147.406,173.986 140.055,169.054 132.171,155.248C124.308,169.066 116.965,174.01 110.142,170.078C103.319,166.146 103.915,157.314 111.929,143.582C96.0295,143.681 88.0767,139.794 88.0704,131.919C88.0641,124.046 96.0108,120.146 111.91,120.22C103.874,106.501 103.265,97.67 110.081,93.7273C116.898,89.7846 124.249,94.7163 132.134,108.522C139.996,94.7038 147.339,89.7604 154.161,93.6922C160.984,97.6241 160.389,106.456 152.376,120.188L152.376,120.188Z" stroke="#000000" stroke-width="1" stroke-linecap="round" fill="#008800" stroke-linejoin="round"/>
<path d="M300.055,492.528L310.083,523.284L342.435,523.112L316.28,542.153L326.443,572.866L300.251,553.876L274.182,573.033L284.147,542.256L257.874,523.382L290.223,523.347L300.055,492.528Z" stroke="#000000" stroke-width="1" stroke-linecap="round" fill="#8800FF" stroke-linejoin="round"/>
<path d="M300.281,299.933L425.068,423.928C392.182,457.022 347.496,475.698 300.841,475.847L300.281,299.933Z" fill="#8800FF"/>
<path d="M300.281,299.933L300.841,475.847C254.186,475.995 209.383,457.604 176.287,424.72L300.281,299.933Z" fill="#0000FF"/>
<path d="M300.352,107.739L291.647,81.3713L265.635,91.0876L280.821,67.8421L257.007,53.5639L284.651,50.9452L280.965,23.4229L300.25,43.4021L319.469,23.3615L315.871,50.8955L343.523,53.4261L319.754,67.7801L335.014,90.9771L308.973,81.3437L300.352,107.739Z" stroke="#000000" stroke-width="1" stroke-linecap="round" fill="#FFFF00" stroke-linejoin="round"/>
<path d="M469.177,423.927L507.257,445.751L507.396,489.639L469.456,511.705L431.379,489.881L431.239,445.994L469.177,423.927ZM469.231,441.044L446.089,454.505L446.174,481.276L469.402,494.589L492.545,481.128L492.46,454.357L469.231,441.044Z" stroke="#000000" stroke-width="1" stroke-linecap="round" fill="#FF00FF" stroke-linejoin="round"/>
<path d="M132.151,467.815L118.473,426.167L145.565,426.08L132.151,467.815L161.383,435.144L175.002,458.565L132.151,467.815L175.06,476.795L161.59,500.3L132.151,467.815L145.831,509.466L118.739,509.552L132.151,467.815L102.922,500.487L89.3002,477.068L132.151,467.815L89.2421,458.838L102.714,435.331L132.151,467.815Z" stroke="#000000" stroke-width="1" stroke-linecap="round" fill="#0000FF" stroke-linejoin="round"/>
<path d="M300.281,299.933L476.194,299.373C476.343,346.028 457.952,390.832 425.068,423.928L300.281,299.933Z" fill="#FF00FF"/>
<path d="M300.281,299.933L175.495,175.94C208.38,142.844 253.065,124.168 299.72,124.019L300.281,299.933Z" fill="#FFFF00"/>
<path d="M468.255,133.735L491.299,93.6002L487.703,94.6241L484.385,95.7966L481.34,97.0964L478.554,98.4959L476.021,99.9758L473.728,101.515L471.667,103.096L469.821,104.704L468.185,106.323L466.743,107.941L464.395,111.127L462.688,114.187L461.526,117.067L460.824,119.727L460.504,122.142L460.49,124.301L460.901,127.053L461.67,129.242L462.989,131.37L464.755,132.967L466.917,133.796L468.255,133.735ZM470.388,133.73L447.154,93.7057L446.241,97.3317L445.599,100.791L445.199,104.079L445.019,107.191L445.035,110.126L445.22,112.879L445.559,115.457L446.03,117.857L446.613,120.085L447.294,122.142L448.879,125.768L450.676,128.778L452.589,131.224L454.543,133.16L456.472,134.646L458.335,135.738L460.925,136.756L463.206,137.186L465.707,137.107L467.973,136.376L469.772,134.92L470.388,133.73ZM471.45,131.88L425.172,131.991L427.855,134.593L430.53,136.88L433.178,138.868L435.784,140.581L438.332,142.036L440.812,143.25L443.211,144.246L445.525,145.039L447.745,145.648L449.868,146.086L453.8,146.527L457.305,146.476L460.382,146.042L463.035,145.319L465.288,144.39L467.164,143.321L469.34,141.588L470.852,139.829L472.035,137.623L472.535,135.295L472.173,133.007L471.45,131.88ZM470.379,130.036L447.337,170.169L450.932,169.145L454.248,167.972L457.295,166.675L460.082,165.273L462.614,163.795L464.906,162.254L466.969,160.673L468.812,159.067L470.451,157.448L471.893,155.83L474.238,152.644L475.948,149.582L477.11,146.704L477.811,144.042L478.132,141.627L478.146,139.468L477.732,136.716L476.965,134.527L475.646,132.402L473.881,130.804L471.718,129.973L470.379,130.036ZM468.246,130.041L491.482,170.063L492.394,166.437L493.037,162.978L493.434,159.691L493.614,156.578L493.601,153.645L493.413,150.89L493.074,148.312L492.606,145.912L492.022,143.686L491.341,141.627L489.756,138.003L487.96,134.991L486.047,132.545L484.093,130.609L482.161,129.123L480.298,128.031L477.709,127.013L475.43,126.583L472.928,126.662L470.662,127.393L468.862,128.852L468.246,130.041ZM467.184,131.891L513.464,131.78L510.779,129.176L508.105,126.891L505.455,124.901L502.851,123.188L500.303,121.736L497.824,120.519L495.424,119.525L493.11,118.73L490.888,118.124L488.767,117.683L484.835,117.244L481.329,117.295L478.254,117.727L475.6,118.45L473.348,119.381L471.471,120.448L469.293,122.181L467.783,123.942L466.601,126.146L466.098,128.474L466.462,130.762L467.184,131.891Z" stroke="#000000" stroke-width="2" stroke-linecap="round" fill="#FF8800" stroke-linejoin="round" style="mix-blend-mode: source-over; paint-order: stroke fill markers"/>
<path d="M300.281,299.933L299.72,124.019C346.376,123.87 391.18,142.262 424.275,175.147L300.281,299.933Z" fill="#FF8800"/>
<path d="M300.041,300.459L424.036,175.673C457.13,208.558 475.807,253.243 475.955,299.898L300.041,300.459Z" fill="#FF0000"/>
<path d="M300.281,299.857L124.367,300.417C124.218,253.762 142.609,208.959 175.495,175.863L300.281,299.857Z" fill="#008800"/>
<path d="M299.432,122.001C397.739,121.688 477.686,201.127 477.999,299.432C478.312,397.739 398.873,477.686 300.566,477.999C202.261,478.312 122.314,398.873 122.001,300.566C121.688,202.261 201.127,122.314 299.432,122.001L299.432,122.001ZM299.444,125.561C203.105,125.868 125.254,204.216 125.561,300.555C125.868,396.895 204.216,474.746 300.555,474.439C396.895,474.132 474.746,395.784 474.439,299.444C474.132,203.105 395.784,125.254 299.444,125.561L299.444,125.561Z" fill="#000000"/>
<path d="M299,123.5L301,123.5L301,476.5L299,476.5L299,123.5Z" fill="#000000"/>
<path d="M175,176.205L176.168,175L425,423.795L423.832,425L175,176.205Z" fill="#000000"/>
<path d="M476.499,299L476.5,300.714L123.501,301L123.5,299.286L476.499,299Z" fill="#000000"/>
<path d="M423.8,175L425,176.174L176.2,425L175,423.826L423.8,175Z" fill="#000000"/>
</g>
</svg>
